<svg xmlns="http://www.w3.org/2000/svg" width="158.364" height="270.219" viewBox="0 0 158.364 270.219">
  <g id="location" transform="translate(-54.643)">
    <path id="Caminho_991" data-name="Caminho 991" d="M133.826,0A79.273,79.273,0,0,0,54.643,79.183,78.457,78.457,0,0,0,62.307,113.2c.1.228.21.452.324.677l59.827,115.837a12.793,12.793,0,0,0,22.734,0L205,113.912c.1-.2.2-.4.292-.6a78.449,78.449,0,0,0,7.713-34.124A79.27,79.27,0,0,0,133.826,0Zm0,120.629a41.446,41.446,0,1,1,41.446-41.446A41.493,41.493,0,0,1,133.826,120.629Z" transform="translate(0)" fill="#fff"/>
    <path id="Caminho_992" data-name="Caminho 992" d="M163.386,249.018h-61a7.676,7.676,0,0,0,0,15.352h61a7.676,7.676,0,0,0,0-15.352Z" transform="translate(0.941 5.849)" fill="#fff"/>
  </g>
</svg>
